:SAMPLES-PER-SECOND 30
:FULLY-SPECIFIED
:DEGREES
886
root  -32.7804 39.3421 -0.492555 -89.6552 -85.2317 81.9391
RightUpLeg  -20.6844 5.5766 -8.56982
RightLeg  36.8413 2.38514 1.66477
RightFoot  -0.855485 -0.7594 8.20356
RightToes  3.49245e-010 0 -3.6325e-017
Spine  8.37922 -1.49789 -6.2889
Spine1  4.49957 -2.16592 -0.633831
HEad  -11.2517 3.89636 -2.83094
LeftShoulder1  -0.375389 4.48504 -32.1185
LeftArm  7.87507 -12.5849 -41.9283
LeftForeArm  18.6706 -27.4433 -4.90628
LeftHand  -0.0315671 5.22081 4.48815
RightShoulder  -0.815846 -5.77623 29.282
RightArm  26.0372 -11.8491 44.9237
RightForeArm  14.726 14.7014 7.11416
RightHand  -0.209315 6.5019 -2.38831
LeftUpLeg  2.40253 5.75707 -7.79724
LeftLeg  17.3546 5.73622 0.931159
LeftFoot  -12.4852 0.147681 7.24902
LeftToes  -5.6298e-010 8.41567e-011 -1.83319e-011
887
root  -33.8381 39.3385 -0.409731 -86.4925 -85.0028 79.2213
RightUpLeg  -20.6275 3.92402 -8.40877
RightLeg  24.8904 2.7205 1.21659
RightFoot  -1.13272 -0.779454 8.62235
RightToes  3.49245e-010 0 -3.6325e-017
Spine  7.92826 -1.54044 -6.33193
Spine1  4.6741 -2.13308 -0.120387
HEad  -11.2369 3.11249 -2.53601
LeftShoulder1  -0.339161 4.39389 -31.9659
LeftArm  6.4602 -13.6396 -41.8808
LeftForeArm  19.9748 -30.0979 -5.44783
LeftHand  -0.0374583 5.07326 5.50525
RightShoulder  -0.850813 -5.85418 29.5901
RightArm  22.6728 -11.0254 44.6917
RightForeArm  17.3882 12.8189 7.49475
RightHand  -0.175189 5.51794 -2.1756
LeftUpLeg  4.34659 5.8187 -7.87429
LeftLeg  16.139 5.47117 0.511256
LeftFoot  -13.6415 0.22561 7.15788
LeftToes  -5.6298e-010 8.41567e-011 -1.83319e-011
888
root  -34.9243 39.3047 -0.315735 -84.5102 -84.6445 77.6306
RightUpLeg  -20.1305 0.378469 -7.6249
RightLeg  13.2516 4.95505 0.77464
RightFoot  -1.12262 -0.774506 8.56071
RightToes  3.49245e-010 0 -3.6325e-017
Spine  7.20738 -1.49532 -5.73571
Spine1  5.31967 -1.86992 -0.304386
HEad  -11.3326 2.56371 -2.43326
LeftShoulder1  -0.30072 4.29703 -31.7818
LeftArm  6.46527 -14.4913 -41.8947
LeftForeArm  21.1629 -32.2805 -5.91111
LeftHand  -0.0261419 5.32142 4.46715
RightShoulder  -0.903402 -5.99215 29.719
RightArm  19.5236 -10.2983 44.7778
RightForeArm  19.8205 11.0808 7.56956
RightHand  -0.0895408 5.0216 -1.30401
LeftUpLeg  6.54877 5.67444 -8.19294
LeftLeg  14.5735 5.48837 0.222269
LeftFoot  -14.7101 0.292351 6.90391
LeftToes  -5.6298e-010 8.41567e-011 -1.83319e-011
889
root  -36.0638 39.21 -0.242952 -82.1332 -84.0085 75.7604
RightUpLeg  -19.8791 -5.98678 -5.87133
RightLeg  3.39298 10.3219 -0.311851
RightFoot  -1.67504 -0.752961 8.76489
RightToes  3.49245e-010 0 -3.6325e-017
Spine  6.22855 -1.38468 -5.63254
Spine1  6.02363 -1.72521 0.0136012
HEad  -11.3054 2.34242 -2.98875
LeftShoulder1  -0.300056 4.29304 -31.8901
LeftArm  6.67384 -14.6985 -41.9385
LeftForeArm  21.597 -33.7734 -6.26301
LeftHand  -0.0442481 4.78366 4.27211
RightShoulder  -0.883906 -5.94533 29.6076
RightArm  16.402 -9.44434 45.0158
RightForeArm  21.3101 9.11203 7.44996
RightHand  -0.0801213 4.27281 -1.2368
LeftUpLeg  8.72112 5.50777 -8.75613
LeftLeg  13.0197 5.37457 -0.0992216
LeftFoot  -15.7934 0.361566 6.86163
LeftToes  -5.6298e-010 8.41567e-011 -1.83319e-011
890
root  -37.2865 39.0403 -0.181565 -80.7499 -83.6037 74.4035
RightUpLeg  -19.4696 -6.93843 -5.77191
RightLeg  -2.49651 9.93481 -0.96326
RightFoot  -2.8811 -0.644115 8.37978
RightToes  3.49245e-010 0 -3.6325e-017
Spine  5.20303 -1.21993 -4.74209
Spine1  7.36926 -1.37853 -0.439016
HEad  -11.643 1.27397 -3.34793
LeftShoulder1  -0.272129 4.21592 -32.0322
LeftArm  7.51965 -14.8252 -42.1869
LeftForeArm  21.3809 -34.2308 -6.39523
LeftHand  -0.032872 5.15038 4.70926
RightShoulder  -0.842605 -5.84135 29.4385
RightArm  14.5179 -8.81088 45.3052
RightForeArm  20.9314 8.15095 7.13139
RightHand  -0.115192 4.89278 -1.60608
LeftUpLeg  11.3363 5.54004 -9.04783
LeftLeg  11.9463 5.06743 -0.1528
LeftFoot  -17.32 0.433814 6.30962
LeftToes  -5.6298e-010 8.41567e-011 -1.83319e-011
891
root  -38.571 38.7764 -0.177821 -78.3365 -83.3943 72.1596
RightUpLeg  -20.6065 -6.69318 -5.69948
RightLeg  -0.582507 6.54916 -0.698937
RightFoot  -3.33008 -0.460432 6.27324
RightToes  3.49245e-010 0 -3.6325e-017
Spine  5.41291 -1.1798 -4.19353
Spine1  6.88264 -1.33451 -0.443123
HEad  -11.5615 1.02431 -3.78204
LeftShoulder1  -0.37196 4.46213 -32.6945
LeftArm  8.60392 -13.8514 -41.8746
LeftForeArm  21.5695 -34.1817 -6.37157
LeftHand  -0.0287578 5.26185 4.97795
RightShoulder  -0.856845 -5.87143 29.5823
RightArm  14.6553 -7.84323 44.8499
RightForeArm  20.9742 7.6783 7.21747
RightHand  -0.0615162 4.88704 -0.979233
LeftUpLeg  13.2586 5.94612 -8.83954
LeftLeg  12.2605 4.41974 -0.141682
LeftFoot  -19.4615 0.534114 5.86691
LeftToes  -5.6298e-010 8.41567e-011 -1.83319e-011
892
root  -39.9716 38.4343 -0.19732 -71.3387 -83.4411 65.3266
RightUpLeg  -21.5827 -6.70665 -5.49816
RightLeg  4.93462 1.37387 -0.1445
RightFoot  -2.20015 -0.480309 5.66898
RightToes  3.49245e-010 0 -3.6325e-017
Spine  4.91719 -1.46723 -2.82874
Spine1  7.24401 -1.41257 -1.2366
HEad  -12.1491 0.723487 -3.3176
LeftShoulder1  -0.348799 4.40979 -32.3621
LeftArm  9.45155 -11.9233 -42.4545
LeftForeArm  21.6549 -33.1627 -6.10329
LeftHand  -0.0288248 5.26124 4.2833
RightShoulder  -0.928294 -6.03987 30.0206
RightArm  15.4505 -6.41213 44.3866
RightForeArm  20.8753 7.76409 7.45391
RightHand  -0.0244916 4.00707 -0.554376
LeftUpLeg  14.92 6.27777 -8.15285
LeftLeg  13.6164 3.23994 0.277033
LeftFoot  -21.9193 0.644443 5.53527
LeftToes  -5.6298e-010 8.41567e-011 -1.83319e-011
893
root  -41.4496 38.2294 -0.223309 -55.6064 -83.3644 49.869
RightUpLeg  -22.1664 -7.77081 -4.78841
RightLeg  10.2734 -1.33502 -0.142415
RightFoot  0.079835 -0.290671 3.52071
RightToes  3.49245e-010 0 -3.6325e-017
Spine  3.90402 -1.92512 -1.51947
Spine1  7.96615 -2.03116 -0.565373
HEad  -12.1746 0.266852 -3.50285
LeftShoulder1  -0.331852 4.36417 -32.3726
LeftArm  11.8015 -9.41878 -43.0887
LeftForeArm  20.0376 -30.9504 -5.65168
LeftHand  -0.00962823 5.86199 4.62519
RightShoulder  -0.974403 -6.15495 30.1856
RightArm  15.6564 -5.79019 43.815
RightForeArm  20.2657 8.46275 7.39315
RightHand  -0.123862 4.9493 -1.7046
LeftUpLeg  16.9887 5.86711 -6.9194
LeftLeg  13.8997 1.96414 0.803487
LeftFoot  -23.2117 0.641004 4.80808
LeftToes  -5.6298e-010 8.41567e-011 -1.83319e-011
894
root  -42.8979 38.2191 -0.26648 -36.7676 -83.6527 31.1558
RightUpLeg  -22.7857 -9.53696 -2.8592
RightLeg  13.961 -1.33982 0.00989588
RightFoot  7.85167 0.190548 -0.986364
RightToes  3.49245e-010 0 -3.6325e-017
Spine  3.66074 -1.9897 0.59934
Spine1  7.85063 -2.52148 1.21456
HEad  -11.9478 -0.277574 -4.11967
LeftShoulder1  -0.45319 4.63414 -33.9546
LeftArm  17.5515 -7.5895 -42.9614
LeftForeArm  15.5675 -26.613 -4.78963
LeftHand  -0.0196622 5.5536 5.47516
RightShoulder  -0.927355 -6.05293 29.8015
RightArm  15.7346 -5.8695 43.0296
RightForeArm  19.2583 9.27226 7.19102
RightHand  -0.0801535 4.67409 -1.1888
LeftUpLeg  18.9974 4.96686 -4.60615
LeftLeg  14.2281 0.848786 0.920199
LeftFoot  -23.1166 0.431884 2.86998
LeftToes  -5.6298e-010 8.41567e-011 -1.83319e-011
895
root  -44.4577 38.0879 -0.31091 -23.456 -85.0327 17.8077
RightUpLeg  -23.5726 -8.94712 -0.675186
RightLeg  19.7549 -0.019865 -0.27885
RightFoot  6.99683 0.351551 -1.89903
RightToes  3.49245e-010 0 -3.6325e-017
Spine  3.60928 -1.68548 4.49241
Spine1  7.29869 -1.73583 -0.18654
HEad  -11.8974 -0.828925 -3.74199
LeftShoulder1  -0.516556 4.77392 -34.5113
LeftArm  20.6152 -4.99752 -43.3817
LeftForeArm  14.6149 -21.6579 -4.91038
LeftHand  -0.00199779 6.70179 2.72509
RightShoulder  -0.918685 -6.01409 30.0068
RightArm  15.2036 -4.75104 42.6913
RightForeArm  19.5635 8.50158 7.19263
RightHand  -0.0110052 3.86728 -0.37596
LeftUpLeg  20.0801 4.32647 -2.29551
LeftLeg  17.2905 0.430847 0.665084
LeftFoot  -23.1113 0.049399 -0.8671
LeftToes  -5.6298e-010 8.41567e-011 -1.83319e-011
896
root  -45.9109 38.0317 -0.388403 -12.1912 -86.8447 6.927
RightUpLeg  -24.1435 -7.1492 0.89937
RightLeg  24.2297 -0.28202 -0.36267
RightFoot  4.73342 0.54391 -3.62096
RightToes  3.49245e-010 0 -3.6325e-017
Spine  3.28979 -1.20446 7.92078
Spine1  7.24493 -0.646979 -1.64473
HEad  -12.1422 -0.404886 -3.58508
LeftShoulder1  -0.515181 4.76446 -34.6958
LeftArm  12.9539 -1.8924 -43.1479
LeftForeArm  24.2777 -14.958 -8.42587
LeftHand  -0.0186394 7.63145 1.01529
RightShoulder  -0.955396 -6.07627 30.5597
RightArm  14.4186 -2.24626 43.0189
RightForeArm  19.3196 6.36561 7.32664
RightHand  -0.130888 5.16842 -1.76835
LeftUpLeg  19.3348 4.7467 -0.309592
LeftLeg  22.5032 -0.5267 0.0498195
LeftFoot  -21.1113 -0.336344 -5.52997
LeftToes  -5.6298e-010 8.41567e-011 -1.83319e-011
897
root  -47.1986 38.0707 -0.539647 1.46112 -86.6443 -6.27661
RightUpLeg  -23.8965 -6.92833 1.86873
RightLeg  27.1424 -0.81734 -0.690098
RightFoot  1.76885 0.501674 -4.24026
RightToes  3.49245e-010 0 -3.6325e-017
Spine  3.00306 -1.37033 8.54396
Spine1  7.6328 -0.825891 -0.294535
HEad  -12.4415 0.0912236 -3.41869
LeftShoulder1  -0.496665 4.71403 -34.8618
LeftArm  2.285 1.54906 -42.8014
LeftForeArm  35.9248 -8.09748 -10.5728
LeftHand  -0.047528 8.52875 -0.118427
RightShoulder  -0.926223 -6.02069 30.2168
RightArm  13.7164 0.729486 44.4749
RightForeArm  20.6385 4.33003 7.24266
RightHand  -0.0991246 4.2608 -1.42835
LeftUpLeg  15.815 4.69767 1.71585
LeftLeg  31.1568 -2.24696 -1.13239
LeftFoot  -15.6621 -0.274622 -10.3318
LeftToes  -5.6298e-010 8.41567e-011 -1.83319e-011
898
root  -48.3746 38.2111 -0.695744 14.5204 -85.0392 -18.7473
RightUpLeg  -22.8079 -7.18786 3.05172
RightLeg  28.0216 -1.93354 -1.35673
RightFoot  -0.644033 0.375802 -4.04816
RightToes  3.49245e-010 0 -3.6325e-017
Spine  2.80479 -1.72234 10.0896
Spine1  7.46912 -1.01532 0.00534084
HEad  -13.0348 -0.424479 -2.69972
LeftShoulder1  -0.415054 4.52167 -34.6147
LeftArm  -1.97795 4.18469 -42.8245
LeftForeArm  42.8847 -2.69549 -10.4086
LeftHand  -0.231465 10.4169 -3.3198
RightShoulder  -0.962409 -6.13411 30.0159
RightArm  12.1926 2.28238 45.7683
RightForeArm  20.9495 4.45983 6.64825
RightHand  -0.0305742 3.56783 -0.5439
LeftUpLeg  9.70093 3.43888 3.85401
LeftLeg  41.8449 -2.37111 -1.82436
LeftFoot  -5.13299 0.590584 -11.6256
LeftToes  -5.6298e-010 8.41567e-011 -1.83319e-011
